<svg xmlns="http://www.w3.org/2000/svg" viewBox="0 0 100 100" role="img" aria-label="Maggie's Trail mark: twin mountain peaks with a winding trail and a summit star">
  <defs>
    <radialGradient id="badge-depth" cx="0" cy="0" r="1" gradientUnits="userSpaceOnUse" gradientTransform="translate(31 22) rotate(48) scale(82)">
      <stop stop-color="#2B5577"/>
      <stop offset="0.48" stop-color="#12304A"/>
      <stop offset="1" stop-color="#071421"/>
    </radialGradient>
    <linearGradient id="peak-light" x1="30" y1="34" x2="62" y2="82" gradientUnits="userSpaceOnUse">
      <stop stop-color="#FFFFFF"/>
      <stop offset="0.5" stop-color="#F7F3EC"/>
      <stop offset="1" stop-color="#DCCEBB"/>
    </linearGradient>
    <linearGradient id="trail-depth" x1="35" y1="53" x2="52" y2="79" gradientUnits="userSpaceOnUse">
      <stop stop-color="#173B58"/>
      <stop offset="1" stop-color="#071421"/>
    </linearGradient>
    <radialGradient id="star-light" cx="0" cy="0" r="1" gradientUnits="userSpaceOnUse" gradientTransform="translate(48 15) rotate(53) scale(13)">
      <stop stop-color="#FFC06A"/>
      <stop offset="0.5" stop-color="#F08A24"/>
      <stop offset="1" stop-color="#D85F0D"/>
    </radialGradient>
  </defs>
  <rect x="4" y="4" width="92" height="92" rx="20" fill="#0D1B2A"/>
  <rect x="4" y="4" width="92" height="92" rx="20" fill="url(#badge-depth)"/>
  <rect x="5.25" y="5.25" width="89.5" height="89.5" rx="18.75" fill="none" stroke="#F7F3EC" stroke-opacity="0.16" stroke-width="1.5"/>
  <path d="M14,80 L30,36 L50,54 L70,36 L86,80 Z" fill="#F7F3EC"/>
  <path d="M14,80 L30,36 L50,54 L70,36 L86,80 Z" fill="url(#peak-light)"/>
  <path d="M45.50,78.00 C22.50,78.00 20.50,62.00 33.50,60.00 C47.50,58.00 58.50,56.00 45.50,54.00 L54.50,54.00 C67.50,56.00 56.50,58.00 42.50,60.00 C29.50,62.00 31.50,78.00 54.50,78.00 Z" fill="#0D1B2A"/>
  <path d="M45.50,78.00 C22.50,78.00 20.50,62.00 33.50,60.00 C47.50,58.00 58.50,56.00 45.50,54.00 L54.50,54.00 C67.50,56.00 56.50,58.00 42.50,60.00 C29.50,62.00 31.50,78.00 54.50,78.00 Z" fill="url(#trail-depth)"/>
  <path d="M50,9 L52.26,16.74 L60,19 L52.26,21.26 L50,29 L47.74,21.26 L40,19 L47.74,16.74 Z" fill="#F08A24"/>
  <path d="M50,9 L52.26,16.74 L60,19 L52.26,21.26 L50,29 L47.74,21.26 L40,19 L47.74,16.74 Z" fill="url(#star-light)"/>
</svg>
